<?xml version="1.0" standalone="no"?>
<!DOCTYPE svg PUBLIC "-//W3C//DTD SVG 20010904//EN"
 "http://www.w3.org/TR/2001/REC-SVG-20010904/DTD/svg10.dtd">
<svg version="1.0" xmlns="http://www.w3.org/2000/svg"
 width="460.000000pt" height="460.000000pt" viewBox="0 0 460.000000 460.000000"
 preserveAspectRatio="xMidYMid meet">
<metadata>
Created by potrace 1.14, written by Peter Selinger 2001-2017
</metadata>
<g transform="translate(0.000000,460.000000) scale(0.100000,-0.100000)"
fill="#000000" stroke="none">
<path d="M3494 4303 c-16 -51 -31 -83 -61 -135 -18 -31 -33 -61 -33 -66 0 -6
-20 -37 -45 -70 -25 -33 -45 -63 -45 -67 0 -9 -171 -198 -184 -204 -5 -2 -27
-20 -49 -40 -37 -33 -48 -37 -163 -56 -68 -11 -124 -17 -124 -12 0 11 57 94
67 99 10 4 63 81 63 91 0 16 -53 5 -146 -29 -55 -20 -128 -44 -162 -55 -70
-20 -203 -98 -227 -132 -15 -21 -15 -21 -15 12 0 18 15 79 34 135 41 123 50
162 38 170 -13 8 -59 -19 -111 -64 -93 -81 -142 -126 -164 -149 -12 -13 -39
-41 -59 -62 -21 -20 -38 -42 -38 -47 0 -5 -11 -21 -24 -35 -13 -14 -43 -67
-67 -116 -41 -88 -44 -91 -83 -99 -23 -5 -42 -8 -43 -8 0 1 10 35 24 76 22 64
27 98 31 225 4 167 -4 235 -44 328 -14 34 -31 76 -37 92 -10 27 -83 147 -122
203 -9 12 -24 22 -35 22 -22 0 -26 -18 -35 -155 -7 -110 -24 -187 -75 -355
-26 -84 -51 -151 -86 -226 -13 -28 -24 -56 -24 -63 0 -11 -43 -101 -102 -216
-12 -22 -41 -80 -66 -130 -24 -49 -52 -101 -62 -115 -10 -14 -21 -35 -24 -48
-4 -12 -27 -58 -52 -101 -24 -43 -44 -83 -44 -89 0 -6 -15 -37 -34 -70 -30
-53 -46 -91 -102 -245 -14 -37 -13 -40 13 -72 16 -18 41 -55 57 -82 16 -26 36
-59 45 -73 19 -31 59 -150 67 -202 4 -21 1 -59 -6 -86 -15 -54 -26 -77 -93
-199 -32 -60 -31 -74 17 -126 19 -20 41 -48 49 -61 16 -24 66 -62 144 -111 58
-37 155 -50 252 -36 101 15 214 81 388 224 42 35 49 38 87 32 104 -17 117 -78
45 -205 -21 -38 -39 -73 -39 -77 0 -4 -12 -21 -26 -38 -23 -27 -125 -173 -149
-213 -5 -9 -20 -32 -33 -49 -35 -50 -149 -289 -155 -326 -3 -18 -16 -70 -28
-115 -18 -67 -20 -87 -11 -100 7 -10 21 -30 32 -47 54 -83 260 -201 421 -241
54 -13 107 -24 118 -24 19 0 90 42 101 60 3 4 21 21 40 37 56 44 200 209 230
263 37 66 81 161 105 225 32 90 60 140 76 140 6 0 20 -28 30 -62 30 -109 40
-109 68 -5 27 102 28 204 1 256 -18 36 -18 41 -3 70 9 17 25 44 36 60 l20 28
14 -25 c7 -14 25 -59 39 -99 14 -40 32 -79 40 -87 11 -12 16 -7 35 35 39 91
49 138 49 238 0 87 2 97 15 86 18 -15 85 -153 85 -174 0 -30 44 -106 61 -106
14 0 19 14 24 76 11 108 2 233 -18 272 -15 28 -16 32 -2 32 8 0 15 -4 15 -9 0
-19 52 -71 71 -71 15 0 19 7 19 34 0 60 -60 223 -101 272 -18 22 -4 18 64 -18
12 -7 60 -31 106 -55 111 -56 122 -48 70 50 -21 39 -39 80 -39 89 0 33 -65
147 -107 191 -28 28 -120 87 -145 92 -33 8 -32 24 3 43 24 13 100 12 227 -4
48 -6 52 -5 52 13 0 11 -7 26 -15 33 -8 7 -15 18 -15 24 0 22 -116 147 -161
173 -24 15 -71 36 -104 49 -33 13 -50 23 -39 23 25 1 106 44 124 66 7 8 18 15
25 15 15 0 145 128 192 189 36 47 128 231 138 276 4 17 18 75 31 130 66 271
51 595 -48 1005 -24 99 -33 120 -54 120 -8 0 -17 -8 -20 -17z m-1639 -1949
c47 -31 23 -106 -24 -77 -27 17 -45 62 -31 79 16 18 25 18 55 -2z m-140 -127
c19 -49 26 -54 94 -89 63 -31 71 -38 54 -46 -37 -20 -121 -29 -174 -19 l-51
10 4 66 c5 62 35 148 47 135 3 -3 15 -29 26 -57z m450 -1887 c4 -6 11 -7 17
-4 7 4 8 2 4 -4 -12 -20 -35 -13 -74 23 l-37 35 42 -20 c23 -11 45 -24 48 -30z"/>
</g>
</svg>
